<svg xmlns="http://www.w3.org/2000/svg" width="256" height="256" viewBox="0 0 256 256">
  <defs>
    <linearGradient id="base" x1="38" y1="22" x2="218" y2="236" gradientUnits="userSpaceOnUse">
      <stop offset="0" stop-color="#5EC7B5"/>
      <stop offset="0.5" stop-color="#2F8F80"/>
      <stop offset="1" stop-color="#145A51"/>
    </linearGradient>
    <linearGradient id="letter" x1="78" y1="52" x2="158" y2="202" gradientUnits="userSpaceOnUse">
      <stop offset="0" stop-color="#FFFFFF"/>
      <stop offset="0.56" stop-color="#FFF1C9"/>
      <stop offset="1" stop-color="#D7B26A"/>
    </linearGradient>
    <linearGradient id="accent" x1="58" y1="58" x2="198" y2="74" gradientUnits="userSpaceOnUse">
      <stop offset="0" stop-color="#F8D178"/>
      <stop offset="0.55" stop-color="#E6A23C"/>
      <stop offset="1" stop-color="#A65F1B"/>
    </linearGradient>
    <filter id="shadow" x="-20%" y="-20%" width="140%" height="150%">
      <feDropShadow dx="0" dy="10" stdDeviation="10" flood-color="#000000" flood-opacity="0.28"/>
    </filter>
  </defs>
  <rect width="256" height="256" fill="none"/>
  <circle cx="128" cy="128" r="118" fill="url(#base)" filter="url(#shadow)"/>
  <path d="M48 48c20-22 52-36 90-36 39 0 73 16 94 42-25-14-57-22-96-22-36 0-66 6-88 16z" fill="#FFFFFF" opacity="0.18"/>
  <path d="M58 58h140v36h-50v104h-40V94H58z" fill="#071412" opacity="0.35" transform="translate(7 8)"/>
  <path d="M58 58h140v36h-50v104h-40V94H58z" fill="url(#letter)"/>
  <path d="M58 58h140v16H58z" fill="url(#accent)"/>
  <path d="M108 94h40v10h-40z" fill="#FFFFFF" opacity="0.18"/>
</svg>
